# xmcd
#
# Track frame offsets:
#	150
#	11467
#	25387
#	37425
#	47102
#	57752
#	70530
#	80600
#	91078
#	99962
#	112273
#	125008
#
# Disc length: 1798 seconds
#
# Revision: 0
# Processed by: cddbd v1.4PL0 Copyright (c) Steve Scherf et al.
# Submitted via: dBpowerAMP V4.0
#
DISCID=9d07040c
DTITLE=Tony Douglas - Pieces of Gold
DYEAR=1998
DGENRE=Country
TTITLE0=Back To The Wind
TTITLE1=Is Love Enough
TTITLE2=Thank You, Lord, For Making Her Mine
TTITLE3=That's Alright
TTITLE4=Easy Lovin'
TTITLE5=Home Away From Home
TTITLE6=Big Balls In Cowtown
TTITLE7=Today I Started Loving You Again
TTITLE8=Last Time I Saw Laura
TTITLE9=Window Up Above
TTITLE10=Rodeo Cowboy
TTITLE11=Pieces Of Gold
EXTD=1 more great CD from Tony Douglas.....a have to have for  traditional country music lovers
EXTT0=
EXTT1=
EXTT2=
EXTT3=
EXTT4=
EXTT5=
EXTT6=
EXTT7=
EXTT8=
EXTT9=
EXTT10=
EXTT11=
PLAYORDER=
